# xmcd
#
# Track frame offsets:
#	150
#	23083
#	46055
#	67552
#	82703
#	107046
#	114156
#	149226
#	166501
#	170120
#	178529
#	190479
#	202805
#	223532
#	231287
#
# Disc length: 3272 seconds
#
# Revision: 2
# Processed by: cddbd v1.5.2PL0 Copyright (c) Steve Scherf et al.
# Submitted via: EasyCDDAExtractor 11.1.0.1
#
DISCID=bd0cc60f
DTITLE=Furry Lewis - Fourth And Beale
DYEAR=1969
DGENRE=Blues
TTITLE0=Going To Brownsville
TTITLE1=John Henry
TTITLE2=Casey Jones
TTITLE3=St. Louis Blues
TTITLE4=Judge Boushe Blues
TTITLE5=Just A Little Fun
TTITLE6=Going Back To Gary
TTITLE7=When The Saints Go Marchin' Home
TTITLE8=A Dog Named Blue
TTITLE9=Baby, That's All Right
TTITLE10=Lay My Burden Down
TTITLE11=Let Me Call You Sweetheart
TTITLE12=Furry's Rag (Take Your Time, Baby)
TTITLE13=Water Tank
TTITLE14=God, Be With Us 'Till We Meet Again
EXTD=recorded March 5, 1969 near Fourth and Beale Streets, Memphis, in the hom
EXTD=e of Furry Lewis.\\r\nFurry performed with his guitar, in bed, leg off.
EXTT0=
EXTT1=
EXTT2=
EXTT3=
EXTT4=
EXTT5=
EXTT6=
EXTT7=
EXTT8=
EXTT9=
EXTT10=
EXTT11=
EXTT12=
EXTT13=
EXTT14=
PLAYORDER=
